<svg xmlns="http://www.w3.org/2000/svg" viewBox="0 0 512 512">
  <!-- Background -->
  <rect width="512" height="512" rx="96" fill="#111827"/>

  <!-- 12 hue sectors (30° each, outer r=200, inner r=70, centered at 256,256) -->
  <path d="M 326,256 L 456,256 A 200,200 0 0,1 429.2,356 L 316.6,291 A 70,70 0 0,0 326,256 Z" fill="hsl(0,100%,50%)"/>
  <path d="M 316.6,291 L 429.2,356 A 200,200 0 0,1 356,429.2 L 291,316.6 A 70,70 0 0,0 316.6,291 Z" fill="hsl(30,100%,50%)"/>
  <path d="M 291,316.6 L 356,429.2 A 200,200 0 0,1 256,456 L 256,326 A 70,70 0 0,0 291,316.6 Z" fill="hsl(60,100%,50%)"/>
  <path d="M 256,326 L 256,456 A 200,200 0 0,1 156,429.2 L 221,316.6 A 70,70 0 0,0 256,326 Z" fill="hsl(90,100%,50%)"/>
  <path d="M 221,316.6 L 156,429.2 A 200,200 0 0,1 82.8,356 L 195.4,291 A 70,70 0 0,0 221,316.6 Z" fill="hsl(120,100%,50%)"/>
  <path d="M 195.4,291 L 82.8,356 A 200,200 0 0,1 56,256 L 186,256 A 70,70 0 0,0 195.4,291 Z" fill="hsl(150,100%,50%)"/>
  <path d="M 186,256 L 56,256 A 200,200 0 0,1 82.8,156 L 195.4,221 A 70,70 0 0,0 186,256 Z" fill="hsl(180,100%,50%)"/>
  <path d="M 195.4,221 L 82.8,156 A 200,200 0 0,1 156,82.8 L 221,195.4 A 70,70 0 0,0 195.4,221 Z" fill="hsl(210,100%,50%)"/>
  <path d="M 221,195.4 L 156,82.8 A 200,200 0 0,1 256,56 L 256,186 A 70,70 0 0,0 221,195.4 Z" fill="hsl(240,100%,50%)"/>
  <path d="M 256,186 L 256,56 A 200,200 0 0,1 356,82.8 L 291,195.4 A 70,70 0 0,0 256,186 Z" fill="hsl(270,100%,50%)"/>
  <path d="M 291,195.4 L 356,82.8 A 200,200 0 0,1 429.2,156 L 316.6,221 A 70,70 0 0,0 291,195.4 Z" fill="hsl(300,100%,50%)"/>
  <path d="M 316.6,221 L 429.2,156 A 200,200 0 0,1 456,256 L 326,256 A 70,70 0 0,0 316.6,221 Z" fill="hsl(330,100%,50%)"/>

  <!-- Center dark area -->
  <circle cx="256" cy="256" r="68" fill="#111827"/>

  <!-- Cursor ring -->
  <circle cx="256" cy="256" r="36" fill="none" stroke="rgba(0,0,0,0.45)" stroke-width="14"/>
  <circle cx="256" cy="256" r="36" fill="none" stroke="white" stroke-width="8"/>
</svg>
